<mxfile host="app.diagrams.net" modified="2020-08-17T20:28:14.007Z" agent="5.0 (Windows NT 10.0; Win64; x64) AppleWebKit/537.36 (KHTML, like Gecko) Chrome/84.0.4147.125 Safari/537.36" etag="42oxGl9vYBNDpK1xpbdE" version="13.6.2" type="github">
  <diagram id="0t7YxM1hLrX53GWKAyr_" name="Page-1">
    <mxGraphModel dx="1240" dy="587" grid="1" gridSize="10" guides="1" tooltips="1" connect="1" arrows="1" fold="1" page="1" pageScale="1" pageWidth="850" pageHeight="1100" math="0" shadow="0">
      <root>
        <mxCell id="0" />
        <mxCell id="1" parent="0" />
        <mxCell id="l7mSnK3HWZMsloXm0zQb-1" value="" style="rounded=0;whiteSpace=wrap;html=1;" vertex="1" parent="1">
          <mxGeometry width="850" height="1090" as="geometry" />
        </mxCell>
        <mxCell id="l7mSnK3HWZMsloXm0zQb-30" value="Department" style="swimlane;fontStyle=1;align=center;verticalAlign=top;childLayout=stackLayout;horizontal=1;startSize=40;horizontalStack=0;resizeParent=1;resizeParentMax=0;resizeLast=0;collapsible=1;marginBottom=0;fontSize=24;" vertex="1" parent="1">
          <mxGeometry x="93" y="650" width="250" height="244" as="geometry" />
        </mxCell>
        <mxCell id="l7mSnK3HWZMsloXm0zQb-31" value="-name " style="text;strokeColor=none;fillColor=none;align=left;verticalAlign=top;spacingLeft=4;spacingRight=4;overflow=hidden;rotatable=0;points=[[0,0.5],[1,0.5]];portConstraint=eastwest;fontSize=20;" vertex="1" parent="l7mSnK3HWZMsloXm0zQb-30">
          <mxGeometry y="40" width="250" height="44" as="geometry" />
        </mxCell>
        <mxCell id="l7mSnK3HWZMsloXm0zQb-32" value="" style="line;strokeWidth=1;fillColor=none;align=left;verticalAlign=middle;spacingTop=-1;spacingLeft=3;spacingRight=3;rotatable=0;labelPosition=right;points=[];portConstraint=eastwest;" vertex="1" parent="l7mSnK3HWZMsloXm0zQb-30">
          <mxGeometry y="84" width="250" height="8" as="geometry" />
        </mxCell>
        <mxCell id="l7mSnK3HWZMsloXm0zQb-33" value="+add Course()&#xa;+add lecturer()&#xa;+remove course()&#xa;+remove lecturer()&#xa;+change head()" style="text;strokeColor=none;fillColor=none;align=left;verticalAlign=top;spacingLeft=4;spacingRight=4;overflow=hidden;rotatable=0;points=[[0,0.5],[1,0.5]];portConstraint=eastwest;fontSize=20;" vertex="1" parent="l7mSnK3HWZMsloXm0zQb-30">
          <mxGeometry y="92" width="250" height="152" as="geometry" />
        </mxCell>
        <mxCell id="l7mSnK3HWZMsloXm0zQb-38" style="edgeStyle=orthogonalEdgeStyle;rounded=0;jumpSize=15;orthogonalLoop=1;jettySize=auto;html=1;entryX=0.772;entryY=1.029;entryDx=0;entryDy=0;entryPerimeter=0;endArrow=none;endFill=0;endSize=24;strokeWidth=1;fontSize=24;startArrow=block;startFill=1;" edge="1" parent="1" target="l7mSnK3HWZMsloXm0zQb-25">
          <mxGeometry relative="1" as="geometry">
            <mxPoint x="700" y="417" as="sourcePoint" />
            <Array as="points">
              <mxPoint x="700" y="650" />
            </Array>
          </mxGeometry>
        </mxCell>
        <mxCell id="l7mSnK3HWZMsloXm0zQb-26" value="Head" style="swimlane;fontStyle=1;align=center;verticalAlign=top;childLayout=stackLayout;horizontal=1;startSize=40;horizontalStack=0;resizeParent=1;resizeParentMax=0;resizeLast=0;collapsible=1;marginBottom=0;fontSize=24;" vertex="1" parent="1">
          <mxGeometry x="507" y="650" width="250" height="184" as="geometry" />
        </mxCell>
        <mxCell id="l7mSnK3HWZMsloXm0zQb-27" value="-is head" style="text;strokeColor=none;fillColor=none;align=left;verticalAlign=top;spacingLeft=4;spacingRight=4;overflow=hidden;rotatable=0;points=[[0,0.5],[1,0.5]];portConstraint=eastwest;fontSize=20;" vertex="1" parent="l7mSnK3HWZMsloXm0zQb-26">
          <mxGeometry y="40" width="250" height="54" as="geometry" />
        </mxCell>
        <mxCell id="l7mSnK3HWZMsloXm0zQb-28" value="" style="line;strokeWidth=1;fillColor=none;align=left;verticalAlign=middle;spacingTop=-1;spacingLeft=3;spacingRight=3;rotatable=0;labelPosition=right;points=[];portConstraint=eastwest;" vertex="1" parent="l7mSnK3HWZMsloXm0zQb-26">
          <mxGeometry y="94" width="250" height="8" as="geometry" />
        </mxCell>
        <mxCell id="l7mSnK3HWZMsloXm0zQb-29" value="+create policy()&#xa;+evaluate lecturer() " style="text;strokeColor=none;fillColor=none;align=left;verticalAlign=top;spacingLeft=4;spacingRight=4;overflow=hidden;rotatable=0;points=[[0,0.5],[1,0.5]];portConstraint=eastwest;fontSize=20;" vertex="1" parent="l7mSnK3HWZMsloXm0zQb-26">
          <mxGeometry y="102" width="250" height="82" as="geometry" />
        </mxCell>
        <mxCell id="l7mSnK3HWZMsloXm0zQb-22" value="Lecturer" style="swimlane;fontStyle=1;align=center;verticalAlign=top;childLayout=stackLayout;horizontal=1;startSize=40;horizontalStack=0;resizeParent=1;resizeParentMax=0;resizeLast=0;collapsible=1;marginBottom=0;fontSize=24;" vertex="1" parent="1">
          <mxGeometry x="507" y="160" width="250" height="254" as="geometry" />
        </mxCell>
        <mxCell id="l7mSnK3HWZMsloXm0zQb-23" value="-name&#xa;-employee id " style="text;strokeColor=none;fillColor=none;align=left;verticalAlign=top;spacingLeft=4;spacingRight=4;overflow=hidden;rotatable=0;points=[[0,0.5],[1,0.5]];portConstraint=eastwest;fontSize=20;" vertex="1" parent="l7mSnK3HWZMsloXm0zQb-22">
          <mxGeometry y="40" width="250" height="94" as="geometry" />
        </mxCell>
        <mxCell id="l7mSnK3HWZMsloXm0zQb-24" value="" style="line;strokeWidth=1;fillColor=none;align=left;verticalAlign=middle;spacingTop=-1;spacingLeft=3;spacingRight=3;rotatable=0;labelPosition=right;points=[];portConstraint=eastwest;" vertex="1" parent="l7mSnK3HWZMsloXm0zQb-22">
          <mxGeometry y="134" width="250" height="8" as="geometry" />
        </mxCell>
        <mxCell id="l7mSnK3HWZMsloXm0zQb-25" value="+prepare material()&#xa;+teach lecture()&#xa;+evaluate assignments() " style="text;strokeColor=none;fillColor=none;align=left;verticalAlign=top;spacingLeft=4;spacingRight=4;overflow=hidden;rotatable=0;points=[[0,0.5],[1,0.5]];portConstraint=eastwest;fontSize=20;" vertex="1" parent="l7mSnK3HWZMsloXm0zQb-22">
          <mxGeometry y="142" width="250" height="112" as="geometry" />
        </mxCell>
        <mxCell id="l7mSnK3HWZMsloXm0zQb-35" style="edgeStyle=orthogonalEdgeStyle;rounded=0;orthogonalLoop=1;jettySize=auto;html=1;exitX=0.5;exitY=1;exitDx=0;exitDy=0;fontSize=24;endArrow=diamondThin;endFill=0;strokeWidth=1;jumpSize=7;endSize=24;" edge="1" parent="1" source="l7mSnK3HWZMsloXm0zQb-18">
          <mxGeometry relative="1" as="geometry">
            <mxPoint x="199" y="650" as="targetPoint" />
            <Array as="points">
              <mxPoint x="199" y="530" />
              <mxPoint x="199" y="530" />
            </Array>
          </mxGeometry>
        </mxCell>
        <mxCell id="l7mSnK3HWZMsloXm0zQb-18" value="Course" style="swimlane;fontStyle=1;align=center;verticalAlign=top;childLayout=stackLayout;horizontal=1;startSize=40;horizontalStack=0;resizeParent=1;resizeParentMax=0;resizeLast=0;collapsible=1;marginBottom=0;fontSize=24;" vertex="1" parent="1">
          <mxGeometry x="93" y="160" width="210" height="240" as="geometry" />
        </mxCell>
        <mxCell id="l7mSnK3HWZMsloXm0zQb-19" value="-name&#xa;-schedule&#xa;-semester" style="text;strokeColor=none;fillColor=none;align=left;verticalAlign=top;spacingLeft=4;spacingRight=4;overflow=hidden;rotatable=0;points=[[0,0.5],[1,0.5]];portConstraint=eastwest;fontSize=20;" vertex="1" parent="l7mSnK3HWZMsloXm0zQb-18">
          <mxGeometry y="40" width="210" height="94" as="geometry" />
        </mxCell>
        <mxCell id="l7mSnK3HWZMsloXm0zQb-20" value="" style="line;strokeWidth=1;fillColor=none;align=left;verticalAlign=middle;spacingTop=-1;spacingLeft=3;spacingRight=3;rotatable=0;labelPosition=right;points=[];portConstraint=eastwest;" vertex="1" parent="l7mSnK3HWZMsloXm0zQb-18">
          <mxGeometry y="134" width="210" height="106" as="geometry" />
        </mxCell>
        <mxCell id="l7mSnK3HWZMsloXm0zQb-34" value="CT/2015/054" style="text;align=center;fontStyle=1;verticalAlign=middle;spacingLeft=3;spacingRight=3;strokeColor=none;rotatable=0;points=[[0,0.5],[1,0.5]];portConstraint=eastwest;fontSize=20;" vertex="1" parent="1">
          <mxGeometry x="40" y="20" width="80" height="26" as="geometry" />
        </mxCell>
        <mxCell id="l7mSnK3HWZMsloXm0zQb-36" style="edgeStyle=orthogonalEdgeStyle;rounded=0;jumpSize=7;orthogonalLoop=1;jettySize=auto;html=1;entryX=0.75;entryY=0;entryDx=0;entryDy=0;endArrow=diamondThin;endFill=0;endSize=24;strokeWidth=1;fontSize=24;" edge="1" parent="1" source="l7mSnK3HWZMsloXm0zQb-25" target="l7mSnK3HWZMsloXm0zQb-30">
          <mxGeometry relative="1" as="geometry">
            <Array as="points">
              <mxPoint x="632" y="440" />
              <mxPoint x="281" y="440" />
            </Array>
          </mxGeometry>
        </mxCell>
        <mxCell id="l7mSnK3HWZMsloXm0zQb-37" style="edgeStyle=orthogonalEdgeStyle;rounded=0;jumpSize=7;orthogonalLoop=1;jettySize=auto;html=1;endArrow=none;endFill=0;endSize=24;strokeWidth=1;fontSize=24;" edge="1" parent="1" source="l7mSnK3HWZMsloXm0zQb-23" target="l7mSnK3HWZMsloXm0zQb-19">
          <mxGeometry relative="1" as="geometry" />
        </mxCell>
        <mxCell id="l7mSnK3HWZMsloXm0zQb-39" style="edgeStyle=orthogonalEdgeStyle;rounded=0;jumpSize=15;orthogonalLoop=1;jettySize=auto;html=1;startArrow=none;startFill=0;endArrow=none;endFill=0;endSize=24;strokeWidth=1;fontSize=24;" edge="1" parent="1" target="l7mSnK3HWZMsloXm0zQb-33">
          <mxGeometry relative="1" as="geometry">
            <mxPoint x="507" y="750" as="sourcePoint" />
            <Array as="points">
              <mxPoint x="507" y="750" />
            </Array>
          </mxGeometry>
        </mxCell>
        <mxCell id="l7mSnK3HWZMsloXm0zQb-40" value="manages" style="text;align=center;fontStyle=1;verticalAlign=middle;spacingLeft=3;spacingRight=3;strokeColor=none;rotatable=0;points=[[0,0.5],[1,0.5]];portConstraint=eastwest;fontSize=20;" vertex="1" parent="1">
          <mxGeometry x="402" y="711" width="80" height="26" as="geometry" />
        </mxCell>
        <mxCell id="l7mSnK3HWZMsloXm0zQb-41" value="" style="triangle;whiteSpace=wrap;html=1;fontSize=20;rotation=-180;fillColor=#000000;" vertex="1" parent="1">
          <mxGeometry x="370" y="710" width="20" height="30" as="geometry" />
        </mxCell>
        <mxCell id="l7mSnK3HWZMsloXm0zQb-42" value="assigned" style="text;align=center;fontStyle=1;verticalAlign=middle;spacingLeft=3;spacingRight=3;strokeColor=none;rotatable=0;points=[[0,0.5],[1,0.5]];portConstraint=eastwest;fontSize=20;" vertex="1" parent="1">
          <mxGeometry x="390" y="450" width="80" height="26" as="geometry" />
        </mxCell>
        <mxCell id="l7mSnK3HWZMsloXm0zQb-44" value="1..* " style="text;align=center;fontStyle=1;verticalAlign=middle;spacingLeft=3;spacingRight=3;strokeColor=none;rotatable=0;points=[[0,0.5],[1,0.5]];portConstraint=eastwest;fontSize=20;" vertex="1" parent="1">
          <mxGeometry x="270" y="524" width="80" height="26" as="geometry" />
        </mxCell>
        <mxCell id="l7mSnK3HWZMsloXm0zQb-46" value="1..* " style="text;align=center;fontStyle=1;verticalAlign=middle;spacingLeft=3;spacingRight=3;strokeColor=none;rotatable=0;points=[[0,0.5],[1,0.5]];portConstraint=eastwest;fontSize=20;" vertex="1" parent="1">
          <mxGeometry x="560" y="450" width="80" height="26" as="geometry" />
        </mxCell>
        <mxCell id="l7mSnK3HWZMsloXm0zQb-47" value="0..* " style="text;align=center;fontStyle=1;verticalAlign=middle;spacingLeft=3;spacingRight=3;strokeColor=none;rotatable=0;points=[[0,0.5],[1,0.5]];portConstraint=eastwest;fontSize=20;" vertex="1" parent="1">
          <mxGeometry x="430" y="250" width="80" height="26" as="geometry" />
        </mxCell>
        <mxCell id="l7mSnK3HWZMsloXm0zQb-48" value="0..* " style="text;align=center;fontStyle=1;verticalAlign=middle;spacingLeft=3;spacingRight=3;strokeColor=none;rotatable=0;points=[[0,0.5],[1,0.5]];portConstraint=eastwest;fontSize=20;" vertex="1" parent="1">
          <mxGeometry x="310" y="210" width="80" height="26" as="geometry" />
        </mxCell>
        <mxCell id="l7mSnK3HWZMsloXm0zQb-49" value="offers" style="text;align=center;fontStyle=1;verticalAlign=middle;spacingLeft=3;spacingRight=3;strokeColor=none;rotatable=0;points=[[0,0.5],[1,0.5]];portConstraint=eastwest;fontSize=20;" vertex="1" parent="1">
          <mxGeometry x="110" y="476" width="80" height="26" as="geometry" />
        </mxCell>
        <mxCell id="l7mSnK3HWZMsloXm0zQb-50" value="1..* " style="text;align=center;fontStyle=1;verticalAlign=middle;spacingLeft=3;spacingRight=3;strokeColor=none;rotatable=0;points=[[0,0.5],[1,0.5]];portConstraint=eastwest;fontSize=20;" vertex="1" parent="1">
          <mxGeometry x="130" y="430" width="80" height="26" as="geometry" />
        </mxCell>
        <mxCell id="l7mSnK3HWZMsloXm0zQb-52" value="1" style="text;align=center;fontStyle=1;verticalAlign=middle;spacingLeft=3;spacingRight=3;strokeColor=none;rotatable=0;points=[[0,0.5],[1,0.5]];portConstraint=eastwest;fontSize=20;" vertex="1" parent="1">
          <mxGeometry x="172" y="570" width="80" height="26" as="geometry" />
        </mxCell>
        <mxCell id="l7mSnK3HWZMsloXm0zQb-53" value="teaches" style="text;align=center;fontStyle=1;verticalAlign=middle;spacingLeft=3;spacingRight=3;strokeColor=none;rotatable=0;points=[[0,0.5],[1,0.5]];portConstraint=eastwest;fontSize=20;" vertex="1" parent="1">
          <mxGeometry x="390" y="161" width="80" height="26" as="geometry" />
        </mxCell>
        <mxCell id="l7mSnK3HWZMsloXm0zQb-54" value="" style="triangle;whiteSpace=wrap;html=1;fontSize=20;rotation=-180;fillColor=#000000;" vertex="1" parent="1">
          <mxGeometry x="358" y="160" width="20" height="30" as="geometry" />
        </mxCell>
      </root>
    </mxGraphModel>
  </diagram>
</mxfile>
